<?xml version="1.0" encoding="UTF-8" standalone="no" ?>
<!DOCTYPE svg PUBLIC "-//W3C//DTD SVG 1.1//EN" "http://www.w3.org/Graphics/SVG/1.1/DTD/svg11.dtd">
<svg xmlns="http://www.w3.org/2000/svg" xmlns:xlink="http://www.w3.org/1999/xlink" version="1.1" width="800" height="500" viewBox="0 0 800 500" xml:space="preserve">
<desc>Created with Fabric.js 3.6.6</desc>
<defs>
</defs>
<g transform="matrix(0.62 0 0 0.62 412.53 259.67)"  >
<g style=""   >
		<g transform="matrix(1 0 0 1 -20 -1.5)"  >
<path style="stroke: none; stroke-width: 1; stroke-dasharray: none; stroke-linecap: butt; stroke-dashoffset: 0; stroke-linejoin: miter; stroke-miterlimit: 4; fill: rgb(47,50,53); fill-rule: nonzero; opacity: 1;"  transform=" translate(-661, -419)" d="M 21 59 H 1301 V 771 C 1301 773.8 1301 775.2 1300.46 776.27 C 1299.98 777.211 1299.21 777.976 1298.27 778.455 C 1297.2 779 1295.8 779 1293 779 H 29 C 26.1997 779 24.7996 779 23.73 778.455 C 22.7892 777.976 22.0243 777.211 21.545 776.27 C 21 775.2 21 773.8 21 771 V 59 Z" stroke-linecap="round" />
</g>
		<g transform="matrix(1 0 0 1 -19.5 -381)"  >
<linearGradient id="SVGID_16" gradientUnits="userSpaceOnUse" gradientTransform="matrix(1 0 0 1 0 0)"  x1="661.5" y1="21" x2="661.5" y2="58">
<stop offset="0%" style="stop-color:rgb(58,62,63);stop-opacity: 1"/>
<stop offset="100%" style="stop-color:rgb(47,50,52);stop-opacity: 1"/>
</linearGradient>
<path style="stroke: none; stroke-width: 1; stroke-dasharray: none; stroke-linecap: butt; stroke-dashoffset: 0; stroke-linejoin: miter; stroke-miterlimit: 4; fill: url(#SVGID_16); fill-rule: nonzero; opacity: 1;"  transform=" translate(-661.5, -39.5)" d="M 22 27.4 C 22 25.1598 22 24.0397 22.436 23.184 C 22.8195 22.4314 23.4314 21.8195 24.184 21.436 C 25.0397 21 26.1598 21 28.4 21 H 1294.6 C 1296.84 21 1297.96 21 1298.82 21.436 C 1299.57 21.8195 1300.18 22.4314 1300.56 23.184 C 1301 24.0397 1301 25.1598 1301 27.4 V 58 H 22 V 27.4 Z" stroke-linecap="round" />
</g>
		<g transform="matrix(1 0 0 1 -20 -362)"  >
<rect style="stroke: none; stroke-width: 1; stroke-dasharray: none; stroke-linecap: butt; stroke-dashoffset: 0; stroke-linejoin: miter; stroke-miterlimit: 4; fill: rgb(0,0,0); fill-rule: nonzero; opacity: 0.95;"  x="-639" y="-0.5" rx="0" ry="0" width="1278" height="1" />
</g>
		<g transform="matrix(1 0 0 1 607 -375)"  >
<linearGradient id="SVGID_17" gradientUnits="userSpaceOnUse" gradientTransform="matrix(1 0 0 1 -1288 -45.5)"  x1="1276" y1="33" x2="1276" y2="58">
<stop offset="0%" style="stop-color:rgb(40,41,42);stop-opacity: 1"/>
<stop offset="100%" style="stop-color:rgb(37,37,38);stop-opacity: 1"/>
</linearGradient>
<rect style="stroke: none; stroke-width: 1; stroke-dasharray: none; stroke-linecap: butt; stroke-dashoffset: 0; stroke-linejoin: miter; stroke-miterlimit: 4; fill: url(#SVGID_17); fill-rule: nonzero; opacity: 0.9;"  x="-12" y="-12.5" rx="0" ry="0" width="24" height="25" />
</g>
		<g transform="matrix(1 0 0 1 607 -375)"  >
<path style="stroke: none; stroke-width: 1; stroke-dasharray: none; stroke-linecap: butt; stroke-dashoffset: 0; stroke-linejoin: miter; stroke-miterlimit: 4; fill: rgb(86,88,90); fill-rule: nonzero; opacity: 1;"  transform=" translate(-1288, -45.5)" d="M 1276 33 V 58 H 1277 V 34 H 1300 V 33 H 1276 Z" stroke-linecap="round" />
</g>
		<g transform="matrix(1 0 0 1 607.5 -374)"  >
<rect style="stroke: none; stroke-width: 1; stroke-dasharray: none; stroke-linecap: butt; stroke-dashoffset: 0; stroke-linejoin: miter; stroke-miterlimit: 4; fill: rgb(146,147,147); fill-rule: nonzero; opacity: 1;"  x="-0.5" y="-5.5" rx="0" ry="0" width="1" height="11" />
</g>
		<g transform="matrix(0 -1 1 0 607.5 -374)"  >
<rect style="stroke: none; stroke-width: 1; stroke-dasharray: none; stroke-linecap: butt; stroke-dashoffset: 0; stroke-linejoin: miter; stroke-miterlimit: 4; fill: rgb(146,147,147); fill-rule: nonzero; opacity: 1;"  x="-0.5" y="-5.5" rx="0" ry="0" width="1" height="11" />
</g>
		<g transform="matrix(1 0 0 1 568.5 -380.5)"  >
<linearGradient id="SVGID_18" gradientUnits="userSpaceOnUse" gradientTransform="matrix(1 0 0 1 -1249.5 -40)"  x1="1231" y1="29" x2="1231" y2="51">
<stop offset="0%" style="stop-color:rgb(101,104,106);stop-opacity: 1"/>
<stop offset="100%" style="stop-color:rgb(95,98,99);stop-opacity: 1"/>
</linearGradient>
<rect style="stroke: none; stroke-width: 1; stroke-dasharray: none; stroke-linecap: butt; stroke-dashoffset: 0; stroke-linejoin: miter; stroke-miterlimit: 4; fill: url(#SVGID_18); fill-rule: nonzero; opacity: 1;"  x="-18.5" y="-11" rx="3" ry="3" width="37" height="22" />
</g>
		<g transform="matrix(1 0 0 1 567.5 -379)"  >
<rect style="stroke: rgb(233,233,234); stroke-width: 1; stroke-dasharray: none; stroke-linecap: butt; stroke-dashoffset: 0; stroke-linejoin: miter; stroke-miterlimit: 4; fill: none; fill-rule: nonzero; opacity: 1;"  x="-4" y="-4" rx="0.5" ry="0.5" width="8" height="8" />
</g>
		<g transform="matrix(1 0 0 1 570.5 -382)"  >
<path style="stroke: none; stroke-width: 1; stroke-dasharray: none; stroke-linecap: butt; stroke-dashoffset: 0; stroke-linejoin: miter; stroke-miterlimit: 4; fill: rgb(233,233,234); fill-rule: nonzero; opacity: 1;"  transform=" translate(-1251.5, -38.5)" d="M 1247 36 H 1246 V 37 H 1247 V 36 Z M 1254 43 H 1253 V 44 H 1254 V 43 Z M 1254 42 V 41 H 1253 V 42 H 1254 Z M 1255 42 V 43 H 1256 V 42 H 1255 Z M 1255 35 H 1256 V 34 H 1255 V 35 Z M 1248 35 V 34 H 1247 V 35 H 1248 Z M 1248 36 V 37 H 1249 V 36 H 1248 Z M 1255.89 42.454 L 1255 42 L 1255 42 L 1255.89 42.454 Z M 1255.45 42.891 L 1255 42 L 1255 42 L 1255.45 42.891 Z M 1255.45 34.109 L 1255.91 33.218 L 1255.91 33.218 L 1255.45 34.109 Z M 1255.89 34.546 L 1255 35 L 1255 35 L 1255.89 34.546 Z M 1247.11 34.546 L 1246.22 34.092 L 1246.22 34.092 L 1247.11 34.546 Z M 1247.55 34.109 L 1247.09 33.218 L 1247.09 33.218 L 1247.55 34.109 Z M 1248 36 V 35.6 H 1246 V 36 H 1248 Z M 1248.6 35 H 1254.4 V 33 H 1248.6 V 35 Z M 1255 35.6 V 41.4 H 1257 V 35.6 H 1255 Z M 1254.4 42 H 1254 V 44 H 1254.4 V 42 Z M 1255 43 V 42 H 1253 V 43 H 1255 Z M 1254 43 H 1255 V 41 H 1254 V 43 Z M 1256 42 V 35 H 1254 V 42 H 1256 Z M 1255 34 H 1248 V 36 H 1255 V 34 Z M 1247 35 V 36 H 1249 V 35 H 1247 Z M 1248 35 H 1247 V 37 H 1248 V 35 Z M 1255 41.4 C 1255 41.6965 1255 41.8588 1254.99 41.9754 C 1254.98 42.0803 1254.97 42.0575 1255 42 L 1256.78 42.908 C 1256.92 42.6366 1256.96 42.3668 1256.98 42.1382 C 1257 41.9213 1257 41.6635 1257 41.4 H 1255 Z M 1254.4 44 C 1254.66 44 1254.92 44.0008 1255.14 43.9831 C 1255.37 43.9644 1255.64 43.9203 1255.91 43.782 L 1255 42 C 1255.06 41.9707 1255.08 41.9811 1254.98 41.9897 C 1254.86 41.9992 1254.7 42 1254.4 42 V 44 Z M 1255 42 L 1255 42 L 1255.91 43.782 C 1256.28 43.5903 1256.59 43.2843 1256.78 42.908 L 1255 42 Z M 1254.4 35 C 1254.7 35 1254.86 35.0008 1254.98 35.0103 C 1255.08 35.0189 1255.06 35.0293 1255 35 L 1255.91 33.218 C 1255.64 33.0797 1255.37 33.0356 1255.14 33.0169 C 1254.92 32.9992 1254.66 33 1254.4 33 V 35 Z M 1257 35.6 C 1257 35.3365 1257 35.0787 1256.98 34.8618 C 1256.96 34.6332 1256.92 34.3634 1256.78 34.092 L 1255 35 C 1254.97 34.9425 1254.98 34.9197 1254.99 35.0246 C 1255 35.1412 1255 35.3035 1255 35.6 H 1257 Z M 1255 35 L 1255 35 L 1256.78 34.092 C 1256.59 33.7157 1256.28 33.4097 1255.91 33.218 L 1255 35 Z M 1248 35.6 C 1248 35.3035 1248 35.1412 1248.01 35.0246 C 1248.02 34.9197 1248.03 34.9425 1248 35 L 1246.22 34.092 C 1246.08 34.3634 1246.04 34.6332 1246.02 34.8618 C 1246 35.0787 1246 35.3365 1246 35.6 H 1248 Z M 1248.6 33 C 1248.34 33 1248.08 32.9992 1247.86 33.0169 C 1247.63 33.0356 1247.36 33.0797 1247.09 33.218 L 1248 35 C 1247.94 35.0293 1247.92 35.0189 1248.02 35.0103 C 1248.14 35.0008 1248.3 35 1248.6 35 V 33 Z M 1248 35 L 1247.09 33.218 C 1246.72 33.4097 1246.41 33.7157 1246.22 34.092 L 1248 35 Z" stroke-linecap="round" />
</g>
		<g transform="matrix(1 0 0 1 523.5 -380.5)"  >
<linearGradient id="SVGID_19" gradientUnits="userSpaceOnUse" gradientTransform="matrix(1 0 0 1 -1204.5 -40)"  x1="1186" y1="29" x2="1186" y2="51">
<stop offset="0%" style="stop-color:rgb(101,104,106);stop-opacity: 1"/>
<stop offset="100%" style="stop-color:rgb(95,98,99);stop-opacity: 1"/>
</linearGradient>
<rect style="stroke: none; stroke-width: 1; stroke-dasharray: none; stroke-linecap: butt; stroke-dashoffset: 0; stroke-linejoin: miter; stroke-miterlimit: 4; fill: url(#SVGID_19); fill-rule: nonzero; opacity: 1;"  x="-18.5" y="-11" rx="3" ry="3" width="37" height="22" />
</g>
		<g transform="matrix(1 0 0 1 523.5 -378.5)"  >
<path style="stroke: none; stroke-width: 1; stroke-dasharray: none; stroke-linecap: butt; stroke-dashoffset: 0; stroke-linejoin: miter; stroke-miterlimit: 4; fill: rgb(139,141,143); fill-rule: nonzero; opacity: 1;"  transform=" translate(-1204.5, -42)" d="M 1200 46 H 1209 C 1209 46 1209 37.9983 1209 37.9983 L 1206 38 V 37 H 1208.99 C 1209.56 37 1210 37.4457 1210 37.9954 V 46.0046 C 1210 46.5443 1209.55 47 1209 47 H 1200 C 1199.44 47 1199 46.5543 1199 46.0046 V 37.9954 C 1199 37.4557 1199.45 37 1200.01 37 H 1203 V 38 H 1200.01 C 1200.01 38 1200 46 1200 46 Z" stroke-linecap="round" />
</g>
		<g transform="matrix(1 0 0 1 523.48 -386.37)"  >
<path style="stroke: none; stroke-width: 1; stroke-dasharray: none; stroke-linecap: butt; stroke-dashoffset: 0; stroke-linejoin: miter; stroke-miterlimit: 4; fill: rgb(139,141,143); fill-rule: nonzero; opacity: 1;"  transform=" translate(-1204.49, -34.13)" d="M 1204.49 33.3433 L 1201.95 35.9148 C 1201.76 36.1003 1201.47 36.1003 1201.28 35.9148 C 1201.1 35.7293 1201.1 35.4286 1201.28 35.2431 L 1204.15 32.3358 C 1204.34 32.1503 1204.63 32.1503 1204.82 32.3358 L 1207.69 35.2431 C 1207.87 35.4286 1207.87 35.7293 1207.69 35.9148 C 1207.51 36.1003 1207.21 36.1003 1207.03 35.9148 L 1204.49 33.3433 Z" stroke-linecap="round" />
</g>
		<g transform="matrix(1 0 0 1 523.5 -383)"  >
<path style="stroke: none; stroke-width: 1; stroke-dasharray: none; stroke-linecap: butt; stroke-dashoffset: 0; stroke-linejoin: miter; stroke-miterlimit: 4; fill: rgb(139,141,143); fill-rule: nonzero; opacity: 1;"  transform=" translate(-1204.5, -37.5)" d="M 1204 33 H 1205 V 42 H 1204 V 33 Z" stroke-linecap="round" />
</g>
		<g transform="matrix(1 0 0 1 -19 -380.5)"  >
<linearGradient id="SVGID_20" gradientUnits="userSpaceOnUse" gradientTransform="matrix(1 0 0 1 -662 -40)"  x1="367" y1="29" x2="367" y2="51">
<stop offset="0%" style="stop-color:rgb(101,104,106);stop-opacity: 1"/>
<stop offset="100%" style="stop-color:rgb(95,98,99);stop-opacity: 1"/>
</linearGradient>
<rect style="stroke: none; stroke-width: 1; stroke-dasharray: none; stroke-linecap: butt; stroke-dashoffset: 0; stroke-linejoin: miter; stroke-miterlimit: 4; fill: url(#SVGID_20); fill-rule: nonzero; opacity: 1;"  x="-295" y="-11" rx="4" ry="4" width="590" height="22" />
</g>
		<g transform="matrix(1 0 0 1 263.5 -380)"  >
<path style="stroke: none; stroke-width: 1; stroke-dasharray: none; stroke-linecap: butt; stroke-dashoffset: 0; stroke-linejoin: miter; stroke-miterlimit: 4; fill: rgb(218,218,218); fill-rule: nonzero; opacity: 1;"  transform=" translate(-944.5, -40.5)" d="M 944.5 35 V 36 C 942.015 36 940 38.0147 940 40.5 C 940 42.9853 942.015 45 944.5 45 C 946.985 45 949 42.9853 949 40.5 H 950 C 950 43.5376 947.538 46 944.5 46 C 941.462 46 939 43.5376 939 40.5 C 939 37.4624 941.462 35 944.5 35 Z" stroke-linecap="round" />
</g>
		<g transform="matrix(1 0 0 1 265 -385)"  >
<path style="stroke: none; stroke-width: 1; stroke-dasharray: none; stroke-linecap: butt; stroke-dashoffset: 0; stroke-linejoin: miter; stroke-miterlimit: 4; fill: rgb(218,218,218); fill-rule: nonzero; opacity: 1;"  transform=" translate(-946, -35.5)" d="M 948 35.5 L 944 38 V 33 L 948 35.5 Z" stroke-linecap="round" />
</g>
		<g transform="matrix(1 0 0 1 -502.5 -380.5)"  >
<linearGradient id="SVGID_21" gradientUnits="userSpaceOnUse" gradientTransform="matrix(1 0 0 1 -178.5 -40)"  x1="160" y1="29" x2="160" y2="51">
<stop offset="0%" style="stop-color:rgb(101,104,106);stop-opacity: 1"/>
<stop offset="100%" style="stop-color:rgb(95,98,99);stop-opacity: 1"/>
</linearGradient>
<rect style="stroke: none; stroke-width: 1; stroke-dasharray: none; stroke-linecap: butt; stroke-dashoffset: 0; stroke-linejoin: miter; stroke-miterlimit: 4; fill: url(#SVGID_21); fill-rule: nonzero; opacity: 1;"  x="-18.5" y="-11" rx="3" ry="3" width="37" height="22" />
</g>
		<g transform="matrix(1 0 0 1 -506.98 -382)"  >
<path style="stroke: none; stroke-width: 1; stroke-dasharray: none; stroke-linecap: butt; stroke-dashoffset: 0; stroke-linejoin: miter; stroke-miterlimit: 4; fill: rgb(187,190,192); fill-rule: evenodd; opacity: 1;"  transform=" translate(-174.03, -38.5)" d="M 173 37 V 36 H 175.013 V 37 H 173 Z M 173 39 V 38 H 175.05 V 39 H 173 Z M 173 40 V 41 H 175.05 V 40 H 173 Z" stroke-linecap="round" />
</g>
		<g transform="matrix(1 0 0 1 -502.5 -380.5)"  >
<path style="stroke: none; stroke-width: 1; stroke-dasharray: none; stroke-linecap: butt; stroke-dashoffset: 0; stroke-linejoin: miter; stroke-miterlimit: 4; fill: rgb(233,233,234); fill-rule: evenodd; opacity: 1;"  transform=" translate(-178.5, -40)" d="M 177 34 H 184.993 C 185.551 34 186 34.4488 186 35.0025 V 44.9975 C 186 45.5442 185.549 46 184.993 46 H 177 H 176 H 172.007 C 171.449 46 171 45.5512 171 44.9975 V 35.0025 C 171 34.4558 171.451 34 172.007 34 H 176 H 177 Z M 176 35.0004 C 173.772 35.0002 172.007 35 172.007 35 C 172.006 35 172 44.9975 172 44.9975 C 172 44.998 173.768 44.9985 176 44.9989 V 35.0004 Z M 177 44.999 V 35.0005 C 180.663 35.001 185 35.0017 185 35.0025 C 185 35.0025 184.994 45 184.993 45 C 184.993 45 180.661 44.9996 177 44.999 Z" stroke-linecap="round" />
</g>
		<g transform="matrix(1 0 0 1 -601 -380.5)"  >
<path style="stroke: none; stroke-width: 1; stroke-dasharray: none; stroke-linecap: butt; stroke-dashoffset: 0; stroke-linejoin: miter; stroke-miterlimit: 4; fill: rgb(83,194,43); fill-rule: evenodd; opacity: 1;"  transform=" translate(-80, -40)" d="M 80 46 C 83.3137 46 86 43.3137 86 40 C 86 36.6863 83.3137 34 80 34 C 76.6863 34 74 36.6863 74 40 C 74 43.3137 76.6863 46 80 46 Z" stroke-linecap="round" />
</g>
		<g transform="matrix(1 0 0 1 -621 -380.5)"  >
<path style="stroke: none; stroke-width: 1; stroke-dasharray: none; stroke-linecap: butt; stroke-dashoffset: 0; stroke-linejoin: miter; stroke-miterlimit: 4; fill: rgb(230,192,42); fill-rule: evenodd; opacity: 1;"  transform=" translate(-60, -40)" d="M 60 46 C 63.3137 46 66 43.3137 66 40 C 66 36.6863 63.3137 34 60 34 C 56.6863 34 54 36.6863 54 40 C 54 43.3137 56.6863 46 60 46 Z" stroke-linecap="round" />
</g>
		<g transform="matrix(1 0 0 1 -641 -380.5)"  >
<path style="stroke: none; stroke-width: 1; stroke-dasharray: none; stroke-linecap: butt; stroke-dashoffset: 0; stroke-linejoin: miter; stroke-miterlimit: 4; fill: rgb(255,90,82); fill-rule: evenodd; opacity: 1;"  transform=" translate(-40, -40)" d="M 40 46 C 43.3137 46 46 43.3137 46 40 C 46 36.6863 43.3137 34 40 34 C 36.6863 34 34 36.6863 34 40 C 34 43.3137 36.6863 46 40 46 Z" stroke-linecap="round" />
</g>
		<g transform="matrix(1 0 0 1 -543.5 -380.5)"  >
<linearGradient id="SVGID_22" gradientUnits="userSpaceOnUse" gradientTransform="matrix(1 0 0 1 -137.5 -40)"  x1="125" y1="29" x2="125" y2="51">
<stop offset="0%" style="stop-color:rgb(101,104,106);stop-opacity: 1"/>
<stop offset="100%" style="stop-color:rgb(95,98,99);stop-opacity: 1"/>
</linearGradient>
<rect style="stroke: none; stroke-width: 1; stroke-dasharray: none; stroke-linecap: butt; stroke-dashoffset: 0; stroke-linejoin: miter; stroke-miterlimit: 4; fill: url(#SVGID_22); fill-rule: nonzero; opacity: 1;"  x="-12.5" y="-11" rx="3" ry="3" width="25" height="22" />
</g>
		<g transform="matrix(1 0 0 1 -543.33 -380.5)"  >
<path style="stroke: none; stroke-width: 1; stroke-dasharray: none; stroke-linecap: butt; stroke-dashoffset: 0; stroke-linejoin: miter; stroke-miterlimit: 4; fill: rgb(117,120,122); fill-rule: nonzero; opacity: 1;"  transform=" translate(-137.66, -40)" d="M 134.616 43.9844 C 134.271 44.3478 134.271 44.9181 134.616 45.2816 C 134.988 45.6723 135.61 45.6723 135.982 45.2816 L 140.949 40.0537 C 140.978 40.0236 140.978 39.9764 140.949 39.9463 L 135.982 34.7184 C 135.61 34.3277 134.988 34.3277 134.616 34.7184 C 134.271 35.0819 134.271 35.6522 134.616 36.0156 L 138.402 40 L 134.616 43.9844 Z" stroke-linecap="round" />
</g>
		<g transform="matrix(1 0 0 1 -569.5 -380.5)"  >
<linearGradient id="SVGID_23" gradientUnits="userSpaceOnUse" gradientTransform="matrix(1 0 0 1 0 0)"  x1="99" y1="29" x2="99" y2="51">
<stop offset="0%" style="stop-color:rgb(101,104,106);stop-opacity: 1"/>
<stop offset="100%" style="stop-color:rgb(95,98,99);stop-opacity: 1"/>
</linearGradient>
<path style="stroke: none; stroke-width: 1; stroke-dasharray: none; stroke-linecap: butt; stroke-dashoffset: 0; stroke-linejoin: miter; stroke-miterlimit: 4; fill: url(#SVGID_23); fill-rule: nonzero; opacity: 1;"  transform=" translate(-111.5, -40)" d="M 99 33.8 C 99 32.1198 99 31.2798 99.327 30.638 C 99.6146 30.0735 100.074 29.6146 100.638 29.327 C 101.28 29 102.12 29 103.8 29 H 119.2 C 120.88 29 121.72 29 122.362 29.327 C 122.926 29.6146 123.385 30.0735 123.673 30.638 C 124 31.2798 124 32.1198 124 33.8 V 46.2 C 124 47.8802 124 48.7202 123.673 49.362 C 123.385 49.9265 122.926 50.3854 122.362 50.673 C 121.72 51 120.88 51 119.2 51 H 103.8 C 102.12 51 101.28 51 100.638 50.673 C 100.074 50.3854 99.6146 49.9265 99.327 49.362 C 99 48.7202 99 47.8802 99 46.2 V 33.8 Z" stroke-linecap="round" />
</g>
		<g transform="matrix(1 0 0 1 -569.66 -380.5)"  >
<path style="stroke: none; stroke-width: 1; stroke-dasharray: none; stroke-linecap: butt; stroke-dashoffset: 0; stroke-linejoin: miter; stroke-miterlimit: 4; fill: rgb(233,233,234); fill-rule: nonzero; opacity: 1;"  transform=" translate(-111.34, -40)" d="M 114.384 43.9844 C 114.729 44.3478 114.729 44.9181 114.384 45.2816 C 114.012 45.6723 113.39 45.6723 113.018 45.2816 L 108.051 40.0537 C 108.022 40.0236 108.022 39.9764 108.051 39.9463 L 113.018 34.7184 C 113.39 34.3277 114.012 34.3277 114.384 34.7184 C 114.729 35.0819 114.729 35.6522 114.384 36.0156 L 110.598 40 L 114.384 43.9844 Z" stroke-linecap="round" />
</g>
		<g transform="matrix(1 0 0 1 -20 -20)"  >
<linearGradient id="SVGID_24" gradientUnits="userSpaceOnUse" gradientTransform="matrix(1 0 0 1 -661 -400.5)"  x1="661" y1="19.9974" x2="661" y2="781.003">
<stop offset="0%" style="stop-color:rgb(20,20,20);stop-opacity: 1"/>
</linearGradient>
<rect style="stroke: url(#SVGID_24); stroke-width: 1; stroke-dasharray: none; stroke-linecap: butt; stroke-dashoffset: 0; stroke-linejoin: miter; stroke-miterlimit: 4; fill: none; fill-rule: nonzero; opacity: 1;"  x="-640.5" y="-380" rx="5.5" ry="5.5" width="1281" height="760" />
</g>
		<g transform="matrix(1 0 0 1 -20 -20)"  >
<linearGradient id="SVGID_25" gradientUnits="userSpaceOnUse" gradientTransform="matrix(1 0 0 1 -661 -400.5)"  x1="661" y1="21" x2="661" y2="780">
<stop offset="0%" style="stop-color:rgb(128,131,131);stop-opacity: 1"/>
<stop offset="100%" style="stop-color:rgb(88,91,93);stop-opacity: 1"/>
</linearGradient>
<rect style="stroke: url(#SVGID_25); stroke-width: 1; stroke-dasharray: none; stroke-linecap: butt; stroke-dashoffset: 0; stroke-linejoin: miter; stroke-miterlimit: 4; fill: none; fill-rule: nonzero; opacity: 1;"  x="-639.5" y="-379" rx="4.5" ry="4.5" width="1279" height="758" />
</g>
		<g transform="matrix(1 0 0 1 -659.5 -362)"  >
<rect style="stroke: none; stroke-width: 1; stroke-dasharray: none; stroke-linecap: butt; stroke-dashoffset: 0; stroke-linejoin: miter; stroke-miterlimit: 4; fill: rgb(51,51,51); fill-rule: nonzero; opacity: 1;"  x="-0.5" y="-0.5" rx="0" ry="0" width="1" height="1" />
</g>
		<g transform="matrix(1 0 0 1 619.5 -362)"  >
<rect style="stroke: none; stroke-width: 1; stroke-dasharray: none; stroke-linecap: butt; stroke-dashoffset: 0; stroke-linejoin: miter; stroke-miterlimit: 4; fill: rgb(51,51,51); fill-rule: nonzero; opacity: 1;"  x="-0.5" y="-0.5" rx="0" ry="0" width="1" height="1" />
</g>
		<g transform="matrix(1 0 0 1 619.5 -387)"  >
<rect style="stroke: none; stroke-width: 1; stroke-dasharray: none; stroke-linecap: butt; stroke-dashoffset: 0; stroke-linejoin: miter; stroke-miterlimit: 4; fill: rgb(117,119,121); fill-rule: nonzero; opacity: 1;"  x="-0.5" y="-0.5" rx="0" ry="0" width="1" height="1" />
</g>
		<g transform="matrix(1 0 0 1 619.5 -374.5)"  >
<linearGradient id="SVGID_26" gradientUnits="userSpaceOnUse" gradientTransform="matrix(1 0 0 1 -1300.5 -46)"  x1="1300.5" y1="34" x2="1300.5" y2="58">
<stop offset="0%" style="stop-color:rgb(82,83,84);stop-opacity: 1"/>
<stop offset="100%" style="stop-color:rgb(78,79,80);stop-opacity: 1"/>
</linearGradient>
<rect style="stroke: none; stroke-width: 1; stroke-dasharray: none; stroke-linecap: butt; stroke-dashoffset: 0; stroke-linejoin: miter; stroke-miterlimit: 4; fill: url(#SVGID_26); fill-rule: nonzero; opacity: 1;"  x="-0.5" y="-12" rx="0" ry="0" width="1" height="24" />
</g>
</g>
</g>
<g transform="matrix(1 0 0 1 565.52 50.37)" style=""  >
		<text xml:space="preserve" font-family="'Lucida Console', Monaco, monospace" font-size="15" font-style="normal" font-weight="normal" style="stroke: none; stroke-width: 1; stroke-dasharray: none; stroke-linecap: butt; stroke-dashoffset: 0; stroke-linejoin: miter; stroke-miterlimit: 4; fill: rgb(255,255,255); fill-rule: nonzero; opacity: 1; white-space: pre;" ><tspan x="-552" y="4.71" style="fill: rgb(155,203,98); ">tourist@laptop</tspan><tspan x="-425.98" y="4.71" >:</tspan><tspan x="-416.98" y="4.71" style="fill: rgb(81,192,201); ">~</tspan><tspan x="-407.97" y="4.71" style="fill: rgb(255,255,255); ">$</tspan><tspan x="-398.97" y="4.71" style="fill: rgb(81,192,201); white-space: pre; "> </tspan><tspan x="-389.97" y="4.71" style="fill: rgb(255,255,255); ">g++ hello.cpp</tspan></text>
</g>
</svg>